<svg width="26" height="28" viewBox="0 0 26 28" fill="none" xmlns="http://www.w3.org/2000/svg">
<path d="M14.75 1.58771L22.8744 6.27831C23.9573 6.90353 24.6244 8.05897 24.6244 9.3094V18.6906C24.6244 19.941 23.9573 21.0965 22.8744 21.7217L14.75 26.4123C13.6671 27.0375 12.3329 27.0375 11.25 26.4123L3.12564 21.7217C2.04274 21.0965 1.37564 19.941 1.37564 18.6906V9.3094C1.37564 8.05897 2.04274 6.90353 3.12564 6.27831L11.25 1.58771C12.3329 0.962498 13.6671 0.962498 14.75 1.58771Z" fill="url(#paint0_linear_386_481)" stroke="url(#paint1_linear_386_481)"/>
<path fill-rule="evenodd" clip-rule="evenodd" d="M12.1114 10.0898L11.7768 9.85298C11.2992 9.515 10.7286 9.3335 10.1435 9.3335H9.73521C9.46575 9.3335 9.19356 9.35049 8.93959 9.44056C7.35113 10.0039 6.25849 12.0635 6.33752 16.7352C6.35344 17.6765 6.5737 18.7168 7.42298 19.123C7.68764 19.2495 7.99794 19.3335 8.3513 19.3335C8.77531 19.3335 9.11203 19.2126 9.37192 19.0423C9.64444 18.8637 9.88438 18.6315 10.1242 18.3995C10.4206 18.1127 10.7169 17.8261 11.0743 17.6408C11.4636 17.4389 11.8957 17.3335 12.3343 17.3335H13.6661C14.1046 17.3335 14.5367 17.4389 14.926 17.6408C15.2834 17.8261 15.5797 18.1127 15.8761 18.3995C16.1159 18.6315 16.3559 18.8637 16.6284 19.0423C16.8883 19.2126 17.225 19.3335 17.649 19.3335C18.0024 19.3335 18.3127 19.2495 18.5773 19.123C19.4266 18.7168 19.6469 17.6765 19.6628 16.7352C19.7418 12.0635 18.6492 10.0039 17.0607 9.44056C16.8068 9.35049 16.5346 9.3335 16.2651 9.3335H15.8568C15.2717 9.3335 14.7011 9.515 14.2235 9.85298L13.8889 10.0898C13.6291 10.2737 13.3185 10.3725 13.0002 10.3725C12.6818 10.3725 12.3713 10.2737 12.1114 10.0898ZM16.1668 12.0002C16.443 12.0002 16.6668 12.224 16.6668 12.5002C16.6668 12.7763 16.443 13.0002 16.1668 13.0002C15.8907 13.0002 15.6668 12.7763 15.6668 12.5002C15.6668 12.224 15.8907 12.0002 16.1668 12.0002ZM10.0002 12.1668C10.2763 12.1668 10.5002 12.3907 10.5002 12.6668V13.1668H11.0002C11.2763 13.1668 11.5002 13.3907 11.5002 13.6668C11.5002 13.943 11.2763 14.1668 11.0002 14.1668H10.5002V14.6668C10.5002 14.943 10.2763 15.1668 10.0002 15.1668C9.72402 15.1668 9.50016 14.943 9.50016 14.6668V14.1668H9.00016C8.72402 14.1668 8.50016 13.943 8.50016 13.6668C8.50016 13.3907 8.72402 13.1668 9.00016 13.1668H9.50016V12.6668C9.50016 12.3907 9.72402 12.1668 10.0002 12.1668ZM17.6668 13.5002C17.6668 13.7763 17.443 14.0002 17.1668 14.0002C16.8907 14.0002 16.6668 13.7763 16.6668 13.5002C16.6668 13.224 16.8907 13.0002 17.1668 13.0002C17.443 13.0002 17.6668 13.224 17.6668 13.5002ZM15.1668 14.0002C15.443 14.0002 15.6668 13.7763 15.6668 13.5002C15.6668 13.224 15.443 13.0002 15.1668 13.0002C14.8907 13.0002 14.6668 13.224 14.6668 13.5002C14.6668 13.7763 14.8907 14.0002 15.1668 14.0002ZM16.6668 14.5002C16.6668 14.224 16.443 14.0002 16.1668 14.0002C15.8907 14.0002 15.6668 14.224 15.6668 14.5002C15.6668 14.7763 15.8907 15.0002 16.1668 15.0002C16.443 15.0002 16.6668 14.7763 16.6668 14.5002Z" fill="white"/>
<defs>
<linearGradient id="paint0_linear_386_481" x1="3.44231" y1="4.03846" x2="24.8462" y2="20.8654" gradientUnits="userSpaceOnUse">
<stop stop-color="#CC0000"/>
<stop offset="0.31" stop-color="#FF5555"/>
<stop offset="0.35" stop-color="#FF5555"/>
<stop offset="0.425" stop-color="#FF5555"/>
<stop offset="0.47" stop-color="#CC0000"/>
<stop offset="0.535" stop-color="#CC0000"/>
<stop offset="0.665" stop-color="#FF5555"/>
<stop offset="0.695" stop-color="#FF5555"/>
<stop offset="0.739608" stop-color="#FF5555"/>
<stop offset="1" stop-color="#CC0000"/>
</linearGradient>
<linearGradient id="paint1_linear_386_481" x1="1.1" y1="0" x2="13" y2="16.1" gradientUnits="userSpaceOnUse">
<stop stop-color="#F95656"/>
<stop offset="1" stop-color="#CC0000"/>
</linearGradient>
</defs>
</svg>
