<svg width="62" height="66" viewBox="0 0 62 66" fill="none" xmlns="http://www.w3.org/2000/svg">
<g filter="url(#filter0_d_389_4568)">
<path d="M33.7098 9.72805L46.2902 17.0109C47.967 17.9817 49 19.7757 49 21.7171V36.2829C49 38.2243 47.967 40.0184 46.2902 40.9891L33.7098 48.272C32.033 49.2427 29.967 49.2427 28.2901 48.272L15.7098 40.9891C14.033 40.0184 13 38.2243 13 36.2829V21.7171C13 19.7757 14.033 17.9817 15.7098 17.0109L28.2901 9.72805C29.967 8.75732 32.033 8.75732 33.7098 9.72805Z" fill="url(#paint0_linear_389_4568)" stroke="url(#paint1_linear_389_4568)" stroke-width="2"/>
<path d="M40.7834 20.0243C38.8592 19.7725 39.0109 21.5286 38.6333 22.8474C38.4363 23.5371 37.5819 23.1571 37.0877 23.1135C36.6773 23.077 36.2709 23.1112 35.9153 23.2922C34.4412 22.0435 32.5359 21.2886 30.4537 21.2886C25.785 21.2886 22 25.0734 22 29.7423C22 34.4114 25.7853 38.196 30.4537 38.196C35.122 38.196 38.9073 34.4109 38.9073 29.7423C38.9073 27.6403 38.1382 25.719 36.8682 24.2402C37.0603 24.2202 37.2845 24.2301 37.5545 24.2816C38.2161 24.4076 38.8533 24.3127 39.3157 23.799C39.6779 23.3966 39.7638 22.8156 39.8306 22.3004C39.9231 21.5846 39.9068 20.9846 40.783 21.099C41.4692 21.1888 41.4606 20.1128 40.7834 20.0243ZM27.6668 26.5067C26.5359 27.3133 25.8612 28.6227 25.8612 30.0094C25.8612 30.5541 25.4196 30.9958 24.8749 30.9958C24.3301 30.9958 23.8885 30.5541 23.8885 30.0094C23.8885 27.9868 24.8724 26.0768 26.5211 24.9006C26.9638 24.5844 27.5803 24.6865 27.8967 25.1306C28.2131 25.5743 28.1105 26.1903 27.6668 26.5067Z" fill="white"/>
</g>
<defs>
<filter id="filter0_d_389_4568" x="0" y="0" width="62" height="66" filterUnits="userSpaceOnUse" color-interpolation-filters="sRGB">
<feFlood flood-opacity="0" result="BackgroundImageFix"/>
<feColorMatrix in="SourceAlpha" type="matrix" values="0 0 0 0 0 0 0 0 0 0 0 0 0 0 0 0 0 0 127 0" result="hardAlpha"/>
<feOffset dy="4"/>
<feGaussianBlur stdDeviation="6"/>
<feComposite in2="hardAlpha" operator="out"/>
<feColorMatrix type="matrix" values="0 0 0 0 0.317483 0 0 0 0 0.0799203 0 0 0 0 0.0838796 0 0 0 1 0"/>
<feBlend mode="normal" in2="BackgroundImageFix" result="effect1_dropShadow_389_4568"/>
<feBlend mode="normal" in="SourceGraphic" in2="effect1_dropShadow_389_4568" result="shape"/>
</filter>
<linearGradient id="paint0_linear_389_4568" x1="16.2002" y1="13.5332" x2="49.4117" y2="39.5725" gradientUnits="userSpaceOnUse">
<stop stop-color="#CC0000"/>
<stop offset="0.31" stop-color="#CC0000"/>
<stop offset="0.35" stop-color="#FD4B4B"/>
<stop offset="0.425" stop-color="#FD4B4B"/>
<stop offset="0.47" stop-color="#CC0000"/>
<stop offset="0.535" stop-color="#FD4B4B"/>
<stop offset="0.665" stop-color="#FD4B4B"/>
<stop offset="0.695" stop-color="#CC0000"/>
<stop offset="0.739608" stop-color="#FD4B4B"/>
<stop offset="1" stop-color="#CC0000"/>
</linearGradient>
<linearGradient id="paint1_linear_389_4568" x1="12.5732" y1="7.26289" x2="47.6735" y2="38.0718" gradientUnits="userSpaceOnUse">
<stop stop-color="#F13F3F"/>
<stop offset="1" stop-color="#CC0000"/>
</linearGradient>
</defs>
</svg>
