<svg width="149" height="161" viewBox="0 0 149 161" fill="none" xmlns="http://www.w3.org/2000/svg">
<g opacity="0.2" filter="url(#filter0_df_389_4311)">
<path d="M103.826 67.4597L125.791 75.7607C128.719 76.8672 130.845 79.465 131.369 82.5757L135.298 105.913C135.822 109.024 134.664 112.175 132.26 114.179L114.224 129.215C111.82 131.219 108.535 131.772 105.607 130.666L83.642 122.365C80.7142 121.258 78.588 118.66 78.0642 115.55L74.1348 92.2124C73.6111 89.1018 74.7694 85.9509 77.1734 83.9467L95.2093 68.9104C97.6133 66.9062 100.898 66.3532 103.826 67.4597Z" fill="url(#paint0_linear_389_4311)" stroke="url(#paint1_linear_389_4311)" stroke-width="2"/>
<path fill-rule="evenodd" clip-rule="evenodd" d="M100.89 89.7037L99.9675 89.2533C98.6504 88.6105 97.1695 88.3955 95.7293 88.638L94.724 88.8073C94.0606 88.9189 93.3977 89.074 92.8102 89.4034C89.1357 91.4634 87.3085 97.0399 89.4598 108.629C89.8933 110.964 90.8713 113.46 93.1321 114.119C93.8367 114.324 94.6357 114.404 95.5057 114.258C96.5495 114.082 97.3278 113.642 97.8962 113.11C98.4923 112.553 98.9858 111.876 99.4791 111.199C100.089 110.363 100.698 109.527 101.5 108.918C102.374 108.254 103.394 107.813 104.473 107.631L107.752 107.079C108.831 106.897 109.939 106.981 110.982 107.321C111.94 107.634 112.789 108.225 113.639 108.815C114.327 109.293 115.015 109.771 115.76 110.102C116.471 110.418 117.351 110.579 118.395 110.404C119.265 110.257 119.994 109.92 120.592 109.495C122.513 108.133 122.619 105.454 122.264 103.105C120.502 91.4507 116.949 86.7803 112.803 86.0371C112.14 85.9183 111.463 85.9889 110.8 86.1005L109.794 86.2698C108.354 86.5123 107.025 87.2004 105.991 88.2391L105.267 88.9668C104.704 89.5321 103.981 89.9065 103.197 90.0385C102.413 90.1705 101.607 90.0534 100.89 89.7037ZM111.674 92.7751C112.354 92.6606 112.999 93.1248 113.115 93.8117C113.23 94.4985 112.773 95.1483 112.093 95.2628C111.413 95.3772 110.769 94.913 110.653 94.2262C110.537 93.5393 110.995 92.8896 111.674 92.7751ZM96.563 95.7459C97.2428 95.6315 97.8877 96.0954 98.0034 96.7825L98.2128 98.0263L99.4437 97.8191C100.123 97.7046 100.768 98.1686 100.884 98.8557C101 99.5425 100.542 100.192 99.8626 100.307L98.6317 100.514L98.8411 101.758C98.9568 102.445 98.4993 103.094 97.8196 103.209C97.1398 103.323 96.4949 102.859 96.3793 102.172L96.1698 100.929L94.9389 101.136C94.2591 101.25 93.6142 100.786 93.4986 100.099C93.3829 99.4121 93.8403 98.7626 94.5201 98.6481L95.751 98.4408L95.5416 97.197C95.4259 96.5099 95.8832 95.8604 96.563 95.7459ZM115.995 95.8848C116.111 96.5717 115.654 97.2215 114.974 97.3359C114.294 97.4504 113.649 96.9862 113.534 96.2993C113.418 95.6125 113.875 94.9627 114.555 94.8483C115.235 94.7338 115.88 95.198 115.995 95.8848ZM110.05 98.1649C110.73 98.0505 111.188 97.4007 111.072 96.7138C110.956 96.027 110.311 95.5628 109.632 95.6773C108.952 95.7918 108.494 96.4415 108.61 97.1284C108.726 97.8152 109.37 98.2794 110.05 98.1649ZM113.953 98.787C113.837 98.1002 113.192 97.636 112.512 97.7504C111.832 97.8649 111.375 98.5147 111.491 99.2015C111.606 99.8884 112.251 100.353 112.931 100.238C113.611 100.124 114.068 99.4739 113.953 98.787Z" fill="white"/>
</g>
<g opacity="0.2" filter="url(#filter1_df_389_4311)">
<path d="M46.9495 135.642L58.254 155.835C59.7608 158.527 59.717 161.835 58.1393 164.514L46.302 184.61C44.7243 187.289 41.852 188.931 38.7675 188.918L15.6257 188.822C12.5412 188.809 9.71276 187.143 8.20597 184.451L-3.09847 164.258C-4.60526 161.567 -4.56145 158.258 -2.98369 155.58L8.85355 135.483C10.4313 132.805 13.3035 131.163 16.3881 131.175L39.5297 131.272C42.6143 131.285 45.4427 132.951 46.9495 135.642Z" fill="url(#paint2_linear_389_4311)" stroke="url(#paint3_linear_389_4311)" stroke-width="2"/>
<path fill-rule="evenodd" clip-rule="evenodd" d="M30.6274 150.56L30.2169 149.635C29.6311 148.315 28.6503 147.214 27.4101 146.483L26.5444 145.973C25.9732 145.637 25.3747 145.333 24.7227 145.209C20.6443 144.433 15.7292 147.48 10.002 157.587C8.84799 159.623 8.00225 162.127 9.29024 164.057C9.69156 164.659 10.2435 165.226 10.9926 165.667C11.8915 166.197 12.7577 166.358 13.5237 166.318C14.3268 166.275 15.1283 166.078 15.9297 165.88C16.9198 165.636 17.9095 165.392 18.9012 165.441C19.9812 165.495 21.0302 165.809 21.9598 166.356L24.7832 168.019C25.7127 168.567 26.4958 169.332 27.0663 170.251C27.5904 171.094 27.8565 172.078 28.1231 173.062C28.3388 173.859 28.5545 174.656 28.9068 175.379C29.2428 176.068 29.8042 176.748 30.7032 177.277C31.4522 177.718 32.2159 177.926 32.9368 177.985C35.2496 178.176 37.0291 176.222 38.2505 174.226C44.3131 164.317 44.5954 158.54 41.939 155.35C41.5142 154.84 40.9586 154.464 40.3875 154.127L39.5217 153.617C38.2815 152.887 36.8427 152.563 35.4039 152.691L34.3958 152.78C33.6128 152.85 32.8299 152.673 32.1549 152.276C31.4799 151.878 30.9464 151.279 30.6274 150.56ZM36.8142 159.717C37.3996 160.062 37.5917 160.821 37.2433 161.412C36.8949 162.004 36.1378 162.204 35.5524 161.859C34.9669 161.514 34.775 160.755 35.1234 160.164C35.4718 159.572 36.2287 159.372 36.8142 159.717ZM23.5309 152.374C24.1163 152.719 24.3085 153.478 23.96 154.069L23.3291 155.14L24.3891 155.765C24.9744 156.109 25.1666 156.868 24.8181 157.46C24.4697 158.052 23.7126 158.252 23.1273 157.907L22.0673 157.282L21.4364 158.354C21.088 158.945 20.3308 159.145 19.7455 158.8C19.1601 158.456 18.9681 157.696 19.3164 157.105L19.9473 156.034L18.8874 155.409C18.302 155.065 18.1099 154.305 18.4583 153.714C18.8068 153.122 19.5638 152.922 20.1492 153.267L21.2091 153.892L21.8401 152.82C22.1886 152.229 22.9455 152.029 23.5309 152.374ZM38.1014 164.803C37.7531 165.395 36.9959 165.595 36.4106 165.25C35.825 164.905 35.6331 164.146 35.9815 163.555C36.3299 162.963 37.0868 162.763 37.6724 163.108C38.2577 163.453 38.4498 164.212 38.1014 164.803ZM32.1707 162.753C32.756 163.097 33.5132 162.897 33.8616 162.306C34.21 161.714 34.0178 160.955 33.4325 160.61C32.847 160.266 32.09 160.466 31.7416 161.057C31.3933 161.649 31.5852 162.408 32.1707 162.753ZM34.7197 165.697C35.0681 165.105 34.876 164.346 34.2906 164.001C33.7051 163.656 32.9482 163.857 32.5998 164.448C32.2514 165.04 32.4433 165.799 33.0288 166.144C33.6141 166.488 34.3713 166.288 34.7197 165.697Z" fill="white"/>
</g>
<g opacity="0.2" filter="url(#filter2_df_389_4311)">
<path d="M18.4645 5.90727L35.236 9.58151C37.4715 10.0713 39.2854 11.725 39.9944 13.9198L45.3136 30.3858C46.0226 32.5805 45.5191 34.983 43.9926 36.688L32.5404 49.4798C31.014 51.1848 28.6965 51.9334 26.461 51.4437L9.68962 47.7694C7.45416 47.2797 5.64024 45.6259 4.93125 43.4312L-0.388034 26.9651C-1.09705 24.7704 -0.593466 22.368 0.93299 20.663L12.3851 7.87119C13.9116 6.16617 16.229 5.41753 18.4645 5.90727Z" fill="url(#paint4_linear_389_4311)" stroke="url(#paint5_linear_389_4311)" stroke-width="2"/>
<path fill-rule="evenodd" clip-rule="evenodd" d="M18.7021 22.3104L17.9867 22.0826C16.9656 21.7573 15.8714 21.7589 14.8553 22.0872L14.146 22.3163C13.6779 22.4675 13.2148 22.6501 12.8247 22.9507C10.3851 24.8309 9.65501 29.059 12.4412 37.2145C13.0026 38.8578 13.975 40.5602 15.6805 40.7964C16.212 40.8701 16.7985 40.8432 17.4123 40.645C18.1488 40.407 18.6652 40.0061 19.02 39.5612C19.3921 39.0948 19.6772 38.5527 19.9623 38.0107C20.3146 37.3412 20.6665 36.6718 21.1824 36.1459C21.7441 35.5731 22.4349 35.1457 23.1966 34.8996L25.5099 34.1523C26.2715 33.9063 27.0818 33.8488 27.8725 33.9847C28.5986 34.1094 29.2756 34.4464 29.953 34.7833C30.5013 35.0561 31.0496 35.3288 31.6242 35.4894C32.1723 35.6427 32.8256 35.6658 33.5623 35.4278C34.1759 35.2295 34.6673 34.9082 35.0553 34.5374C36.3003 33.3481 36.0929 31.3986 35.5868 29.7375C33.0752 21.4931 30.0094 18.4913 26.931 18.3937C26.4387 18.3781 25.9563 18.5011 25.4883 18.6522L24.7789 18.8814C23.7628 19.2096 22.8744 19.8484 22.2367 20.7096L21.7898 21.313C21.4426 21.7816 20.9593 22.1292 20.4062 22.3079C19.8532 22.4866 19.2578 22.4874 18.7021 22.3104ZM26.8296 23.388C27.3092 23.233 27.8251 23.5004 27.9816 23.985C28.1382 24.4696 27.8762 24.9883 27.3966 25.1432C26.9169 25.2982 26.4012 25.0307 26.2446 24.5461C26.0881 24.0615 26.3499 23.5429 26.8296 23.388ZM16.2128 27.1408C16.6924 26.9859 17.2082 27.2531 17.3648 27.7379L17.6483 28.6155L18.5168 28.3349C18.9963 28.18 19.5121 28.4472 19.6688 28.932C19.8253 29.4166 19.5634 29.9352 19.0838 30.0901L18.2153 30.3707L18.4988 31.2483C18.6553 31.7329 18.3934 32.2515 17.9138 32.4065C17.4342 32.5614 16.9184 32.294 16.7618 31.8094L16.4783 30.9318L15.6098 31.2124C15.1302 31.3673 14.6144 31.1 14.4578 30.6153C14.3012 30.1305 14.5632 29.6121 15.0428 29.4572L15.9113 29.1766L15.6278 28.299C15.4712 27.8142 15.7331 27.2958 16.2128 27.1408ZM30.2856 25.1791C30.4422 25.6637 30.1802 26.1823 29.7006 26.3373C29.2209 26.4923 28.7052 26.2248 28.5486 25.7402C28.3921 25.2556 28.6539 24.737 29.1336 24.5821C29.6132 24.4271 30.1291 24.6945 30.2856 25.1791ZM26.2267 27.4595C26.7063 27.3046 26.9682 26.786 26.8117 26.3013C26.6551 25.8167 26.1392 25.5494 25.6597 25.7043C25.1799 25.8593 24.9181 26.3779 25.0747 26.8625C25.2312 27.3471 25.7469 27.6145 26.2267 27.4595ZM29.1156 27.4954C28.9591 27.0108 28.4432 26.7435 27.9637 26.8984C27.4839 27.0534 27.2221 27.572 27.3787 28.0566C27.5352 28.5412 28.0509 28.8086 28.5307 28.6536C29.0103 28.4987 29.2722 27.9801 29.1156 27.4954Z" fill="white"/>
</g>
<g filter="url(#filter3_d_389_4311)">
<path d="M85.5323 116.707L95.3345 128.515C96.641 130.089 97.0106 132.251 96.3041 134.188L91.0033 148.718C90.2967 150.655 88.6213 152.071 86.6083 152.434L71.5053 155.156C69.4922 155.519 67.4472 154.773 66.1407 153.199L56.3385 141.391C55.032 139.817 54.6624 137.655 55.369 135.718L60.6698 121.188C61.3763 119.251 63.0517 117.835 65.0648 117.472L80.1677 114.75C82.1808 114.387 84.2258 115.133 85.5323 116.707Z" fill="url(#paint6_linear_389_4311)" stroke="url(#paint7_linear_389_4311)" stroke-width="2"/>
<path fill-rule="evenodd" clip-rule="evenodd" d="M76.6835 128.399L76.3045 127.845C75.7636 127.055 74.9914 126.455 74.0947 126.128L73.4688 125.899C73.0558 125.749 72.629 125.623 72.1889 125.62C69.4358 125.605 66.5973 128.184 64.0787 135.463C63.5712 136.93 63.321 138.665 64.3933 139.769C64.7274 140.113 65.1556 140.416 65.6972 140.614C66.3471 140.851 66.9315 140.852 67.4261 140.733C67.9447 140.609 68.4436 140.384 68.9425 140.159C69.5588 139.88 70.1748 139.602 70.8274 139.515C71.5382 139.42 72.26 139.498 72.9322 139.743L74.9735 140.488C75.6456 140.733 76.2483 141.138 76.7309 141.668C77.1742 142.155 77.4662 142.765 77.7585 143.375C77.995 143.868 78.2316 144.362 78.5483 144.791C78.8504 145.2 79.2982 145.576 79.9483 145.813C80.4898 146.01 81.0128 146.054 81.4901 146.006C83.0213 145.852 83.9466 144.364 84.5028 142.915C87.2639 135.723 86.7528 131.922 84.6365 130.161C84.2981 129.88 83.8905 129.701 83.4776 129.551L82.8516 129.322C81.9549 128.995 80.9776 128.957 80.0548 129.214L79.4081 129.393C78.9059 129.533 78.3741 129.512 77.8861 129.334C77.3981 129.156 76.978 128.829 76.6835 128.399ZM81.8201 133.626C82.2433 133.78 82.46 134.252 82.3039 134.68C82.1479 135.108 81.6782 135.329 81.2551 135.175C80.8317 135.02 80.6152 134.548 80.7712 134.121C80.9272 133.693 81.3968 133.471 81.8201 133.626ZM72.2739 130.436C72.6971 130.59 72.9139 131.062 72.7578 131.49L72.4753 132.264L73.2416 132.544C73.6648 132.698 73.8816 133.17 73.7255 133.598C73.5695 134.025 73.0998 134.247 72.6766 134.093L71.9102 133.813L71.6277 134.588C71.4717 135.015 71.002 135.237 70.5788 135.082C70.1555 134.928 69.9389 134.456 70.095 134.028L70.3775 133.254L69.6111 132.974C69.1879 132.82 68.9712 132.348 69.1273 131.92C69.2833 131.493 69.7529 131.271 70.1762 131.425L70.9425 131.705L71.225 130.931C71.3811 130.503 71.8507 130.281 72.2739 130.436ZM83.2716 136.788C83.1156 137.216 82.6459 137.437 82.2227 137.283C81.7994 137.128 81.5829 136.656 81.7389 136.229C81.8949 135.801 82.3644 135.579 82.7878 135.734C83.211 135.888 83.4276 136.36 83.2716 136.788ZM79.1573 136.164C79.5805 136.319 80.0501 136.097 80.2062 135.67C80.3622 135.242 80.1455 134.77 79.7223 134.616C79.299 134.461 78.8294 134.683 78.6734 135.11C78.5174 135.538 78.7339 136.01 79.1573 136.164ZM81.1739 137.778C81.3299 137.35 81.1132 136.878 80.69 136.724C80.2667 136.569 79.7971 136.791 79.6411 137.218C79.4851 137.646 79.7016 138.118 80.125 138.272C80.5481 138.427 81.0178 138.205 81.1739 137.778Z" fill="white"/>
</g>
<g filter="url(#filter4_d_389_4311)">
<path d="M24.1633 70.4914L43.2693 77.7118C45.8159 78.6743 47.6653 80.9339 48.1209 83.6396L51.5388 103.939C51.9943 106.645 50.9869 109.385 48.8958 111.129L33.2077 124.207C31.1166 125.951 28.2597 126.432 25.713 125.469L6.60715 118.249C4.06052 117.287 2.21105 115.027 1.75549 112.321L-1.66238 92.0218C-2.11796 89.3161 -1.11044 86.5754 0.980622 84.8321L16.6686 71.7533C18.7597 70.01 21.6167 69.529 24.1633 70.4914Z" fill="url(#paint8_linear_389_4311)" stroke="url(#paint9_linear_389_4311)" stroke-width="2"/>
<path fill-rule="evenodd" clip-rule="evenodd" d="M21.6098 89.8394L20.807 89.4476C19.6614 88.8885 18.3732 88.7015 17.1205 88.9124L16.2461 89.0597C15.6691 89.1568 15.0925 89.2917 14.5815 89.5782C11.3853 91.37 9.79596 96.2206 11.6672 106.301C12.0443 108.332 12.8949 110.503 14.8615 111.076C15.4743 111.255 16.1694 111.324 16.926 111.197C17.834 111.044 18.511 110.661 19.0054 110.199C19.5239 109.714 19.9531 109.125 20.3822 108.537C20.9125 107.809 21.4423 107.082 22.1403 106.552C22.9004 105.975 23.7872 105.591 24.7262 105.433L27.578 104.953C28.517 104.795 29.4807 104.867 30.3879 105.164C31.2209 105.436 31.9596 105.949 32.6988 106.463C33.297 106.878 33.8953 107.294 34.5439 107.582C35.1625 107.857 35.9275 107.997 36.8356 107.845C37.5922 107.717 38.226 107.424 38.7467 107.054C40.4174 105.869 40.5099 103.539 40.201 101.496C38.6683 91.359 35.5781 87.2966 31.9716 86.6501C31.3949 86.5468 30.8058 86.6082 30.2289 86.7053L29.3544 86.8526C28.1017 87.0635 26.9458 87.662 26.0464 88.5655L25.4162 89.1985C24.9267 89.6901 24.2978 90.0158 23.616 90.1306C22.9342 90.2454 22.2333 90.1436 21.6098 89.8394ZM30.99 92.511C31.5812 92.4114 32.1422 92.8152 32.2428 93.4126C32.3434 94.01 31.9455 94.5752 31.3543 94.6748C30.7629 94.7744 30.2021 94.3706 30.1015 93.7731C30.0009 93.1757 30.3985 92.6105 30.99 92.511ZM17.8457 95.0951C18.437 94.9955 18.998 95.399 19.0986 95.9967L19.2808 97.0786L20.3514 96.8983C20.9427 96.7988 21.5036 97.2023 21.6043 97.8C21.7049 98.3974 21.307 98.9626 20.7158 99.0622L19.6451 99.2424L19.8273 100.324C19.9279 100.922 19.53 101.487 18.9387 101.587C18.3474 101.686 17.7865 101.282 17.6859 100.685L17.5037 99.603L16.4331 99.7832C15.8418 99.8828 15.2808 99.479 15.1802 98.8816C15.0796 98.284 15.4774 97.719 16.0687 97.6194L17.1394 97.4391L16.9572 96.3572C16.8566 95.7596 17.2544 95.1946 17.8457 95.0951ZM34.7485 95.2159C34.8491 95.8133 34.4512 96.3785 33.86 96.4781C33.2685 96.5776 32.7077 96.1739 32.6071 95.5764C32.5066 94.979 32.9042 94.4138 33.4956 94.3142C34.0869 94.2147 34.6479 94.6184 34.7485 95.2159ZM29.5773 97.1992C30.1685 97.0996 30.5664 96.5344 30.4658 95.937C30.3652 95.3395 29.8042 94.9358 29.213 95.0353C28.6215 95.1349 28.2239 95.7001 28.3245 96.2975C28.4251 96.8949 28.9859 97.2987 29.5773 97.1992ZM32.9715 97.7402C32.8709 97.1428 32.3099 96.7391 31.7186 96.8386C31.1272 96.9382 30.7296 97.5034 30.8302 98.1008C30.9307 98.6982 31.4915 99.102 32.083 99.0024C32.6742 98.9029 33.0721 98.3377 32.9715 97.7402Z" fill="white"/>
</g>
<g filter="url(#filter5_d_389_4311)">
<path d="M77.3656 6.13907L97.7941 19.8447C100.517 21.6716 102.067 24.8287 101.859 28.1269L100.303 52.8712C100.096 56.1693 98.163 59.1076 95.2327 60.5789L73.2481 71.6176C70.3178 73.0889 66.8353 72.8699 64.1123 71.0431L43.6839 57.3375C40.961 55.5107 39.4113 52.3534 39.6187 49.0552L41.1747 24.3109C41.3821 21.0127 43.315 18.0746 46.2453 16.6032L68.2298 5.56459C71.1601 4.09325 74.6427 4.31224 77.3656 6.13907Z" fill="url(#paint10_linear_389_4311)" stroke="url(#paint11_linear_389_4311)" stroke-width="2"/>
<path fill-rule="evenodd" clip-rule="evenodd" d="M69.0675 28.1311L68.2334 27.4516C67.043 26.4818 65.5835 25.9094 64.0565 25.8134L62.9906 25.7463C62.2872 25.7021 61.5739 25.7022 60.8961 25.8981C56.6564 27.1235 53.4627 32.3766 52.8942 44.7119C52.7796 47.1973 53.182 49.9774 55.3314 51.188C56.0013 51.5654 56.7973 51.8376 57.7197 51.8956C58.8264 51.9652 59.7254 51.7018 60.432 51.295C61.173 50.8687 61.8378 50.2958 62.5024 49.723C63.3237 49.0155 64.1444 48.3079 65.1082 47.8778C66.1579 47.4091 67.3033 47.2021 68.4478 47.274L71.9241 47.4926C73.0687 47.5646 74.1791 47.9135 75.1618 48.51C76.0642 49.0574 76.7898 49.8622 77.5159 50.6671C78.1036 51.3187 78.6913 51.9703 79.373 52.4861C80.0231 52.9782 80.882 53.3521 81.989 53.4217C82.9112 53.4797 83.735 53.3093 84.447 53.0188C86.7312 52.0871 87.4785 49.3793 87.6761 46.8991C88.6575 34.5895 86.1469 28.9779 82.0942 27.2311C81.4462 26.9518 80.7385 26.8624 80.0353 26.8181L78.9693 26.7511C77.4423 26.6551 75.9225 27.0401 74.6201 27.8532L73.7074 28.4229C72.9985 28.8653 72.1716 29.0749 71.3406 29.0227C70.5095 28.9704 69.7154 28.6588 69.0675 28.1311ZM79.3364 33.8357C80.0571 33.8811 80.6044 34.5084 80.5586 35.2366C80.5128 35.9649 79.8912 36.5187 79.1705 36.4734C78.4496 36.4281 77.9026 35.8008 77.9483 35.0725C77.9941 34.3442 78.6154 33.7904 79.3364 33.8357ZM63.2122 33.2633C63.9329 33.3086 64.4802 33.9356 64.4344 34.6641L64.3515 35.983L65.6566 36.065C66.3773 36.1104 66.9246 36.7374 66.8788 37.4659C66.833 38.1942 66.2114 38.748 65.4908 38.7027L64.1856 38.6206L64.1027 39.9394C64.0569 40.6677 63.4353 41.2215 62.7146 41.1762C61.9938 41.1309 61.4467 40.5036 61.4925 39.7753L61.5754 38.4565L60.2703 38.3744C59.5495 38.3291 59.0023 37.7018 59.0481 36.9735C59.0939 36.245 59.7153 35.6914 60.4361 35.7368L61.7412 35.8188L61.8242 34.5C61.87 33.7715 62.4914 33.2179 63.2122 33.2633ZM83.0029 38.0384C82.9572 38.7667 82.3356 39.3205 81.6149 39.2752C80.894 39.2298 80.3469 38.6025 80.3927 37.8743C80.4385 37.146 81.0598 36.5922 81.7808 36.6375C82.5014 36.6828 83.0487 37.3102 83.0029 38.0384ZM76.3944 38.9469C77.1151 38.9922 77.7367 38.4384 77.7825 37.7101C77.8283 36.9819 77.281 36.3546 76.5603 36.3093C75.8394 36.2639 75.2181 36.8178 75.1723 37.546C75.1265 38.2743 75.6735 38.9016 76.3944 38.9469ZM80.2269 40.5119C80.2726 39.7837 79.7254 39.1564 79.0047 39.111C78.2837 39.0657 77.6624 39.6195 77.6166 40.3478C77.5708 41.076 78.1179 41.7033 78.8388 41.7487C79.5595 41.794 80.1811 41.2402 80.2269 40.5119Z" fill="white"/>
</g>
<defs>
<filter id="filter0_df_389_4311" x="54.8486" y="50.8467" width="99.7354" height="104.432" filterUnits="userSpaceOnUse" color-interpolation-filters="sRGB">
<feFlood flood-opacity="0" result="BackgroundImageFix"/>
<feColorMatrix in="SourceAlpha" type="matrix" values="0 0 0 0 0 0 0 0 0 0 0 0 0 0 0 0 0 0 127 0" result="hardAlpha"/>
<feOffset dy="4"/>
<feGaussianBlur stdDeviation="6"/>
<feComposite in2="hardAlpha" operator="out"/>
<feColorMatrix type="matrix" values="0 0 0 0 0.0799203 0 0 0 0 0.112229 0 0 0 0 0.317483 0 0 0 1 0"/>
<feBlend mode="normal" in2="BackgroundImageFix" result="effect1_dropShadow_389_4311"/>
<feBlend mode="normal" in="SourceGraphic" in2="effect1_dropShadow_389_4311" result="shape"/>
<feGaussianBlur stdDeviation="2" result="effect2_foregroundBlur_389_4311"/>
</filter>
<filter id="filter1_df_389_4311" x="-29.6465" y="105.823" width="114.448" height="116.447" filterUnits="userSpaceOnUse" color-interpolation-filters="sRGB">
<feFlood flood-opacity="0" result="BackgroundImageFix"/>
<feColorMatrix in="SourceAlpha" type="matrix" values="0 0 0 0 0 0 0 0 0 0 0 0 0 0 0 0 0 0 127 0" result="hardAlpha"/>
<feOffset dy="4"/>
<feGaussianBlur stdDeviation="6"/>
<feComposite in2="hardAlpha" operator="out"/>
<feColorMatrix type="matrix" values="0 0 0 0 0.0799203 0 0 0 0 0.112229 0 0 0 0 0.317483 0 0 0 1 0"/>
<feBlend mode="normal" in2="BackgroundImageFix" result="effect1_dropShadow_389_4311"/>
<feBlend mode="normal" in="SourceGraphic" in2="effect1_dropShadow_389_4311" result="shape"/>
<feGaussianBlur stdDeviation="2" result="effect2_foregroundBlur_389_4311"/>
</filter>
<filter id="filter2_df_389_4311" x="-20.0557" y="-11.1924" width="85.0381" height="87.7354" filterUnits="userSpaceOnUse" color-interpolation-filters="sRGB">
<feFlood flood-opacity="0" result="BackgroundImageFix"/>
<feColorMatrix in="SourceAlpha" type="matrix" values="0 0 0 0 0 0 0 0 0 0 0 0 0 0 0 0 0 0 127 0" result="hardAlpha"/>
<feOffset dy="4"/>
<feGaussianBlur stdDeviation="6"/>
<feComposite in2="hardAlpha" operator="out"/>
<feColorMatrix type="matrix" values="0 0 0 0 0.0799203 0 0 0 0 0.112229 0 0 0 0 0.317483 0 0 0 1 0"/>
<feBlend mode="normal" in2="BackgroundImageFix" result="effect1_dropShadow_389_4311"/>
<feBlend mode="normal" in="SourceGraphic" in2="effect1_dropShadow_389_4311" result="shape"/>
<feGaussianBlur stdDeviation="2" result="effect2_foregroundBlur_389_4311"/>
</filter>
<filter id="filter3_d_389_4311" x="36" y="98" width="79.6729" height="81.9062" filterUnits="userSpaceOnUse" color-interpolation-filters="sRGB">
<feFlood flood-opacity="0" result="BackgroundImageFix"/>
<feColorMatrix in="SourceAlpha" type="matrix" values="0 0 0 0 0 0 0 0 0 0 0 0 0 0 0 0 0 0 127 0" result="hardAlpha"/>
<feOffset dy="4"/>
<feGaussianBlur stdDeviation="6"/>
<feComposite in2="hardAlpha" operator="out"/>
<feColorMatrix type="matrix" values="0 0 0 0 0.0799203 0 0 0 0 0.112229 0 0 0 0 0.317483 0 0 0 1 0"/>
<feBlend mode="normal" in2="BackgroundImageFix" result="effect1_dropShadow_389_4311"/>
<feBlend mode="normal" in="SourceGraphic" in2="effect1_dropShadow_389_4311" result="shape"/>
</filter>
<filter id="filter4_d_389_4311" x="-20" y="55" width="89.876" height="93.9609" filterUnits="userSpaceOnUse" color-interpolation-filters="sRGB">
<feFlood flood-opacity="0" result="BackgroundImageFix"/>
<feColorMatrix in="SourceAlpha" type="matrix" values="0 0 0 0 0 0 0 0 0 0 0 0 0 0 0 0 0 0 127 0" result="hardAlpha"/>
<feOffset dy="4"/>
<feGaussianBlur stdDeviation="6"/>
<feComposite in2="hardAlpha" operator="out"/>
<feColorMatrix type="matrix" values="0 0 0 0 0.0799203 0 0 0 0 0.112229 0 0 0 0 0.317483 0 0 0 1 0"/>
<feBlend mode="normal" in2="BackgroundImageFix" result="effect1_dropShadow_389_4311"/>
<feBlend mode="normal" in="SourceGraphic" in2="effect1_dropShadow_389_4311" result="shape"/>
</filter>
<filter id="filter5_d_389_4311" x="22.4834" y="-8.46973" width="96.5107" height="102.122" filterUnits="userSpaceOnUse" color-interpolation-filters="sRGB">
<feFlood flood-opacity="0" result="BackgroundImageFix"/>
<feColorMatrix in="SourceAlpha" type="matrix" values="0 0 0 0 0 0 0 0 0 0 0 0 0 0 0 0 0 0 127 0" result="hardAlpha"/>
<feOffset dy="4"/>
<feGaussianBlur stdDeviation="6"/>
<feComposite in2="hardAlpha" operator="out"/>
<feColorMatrix type="matrix" values="0 0 0 0 0.8 0 0 0 0 0 0 0 0 0 0 0 0 0 1 0"/>
<feBlend mode="normal" in2="BackgroundImageFix" result="effect1_dropShadow_389_4311"/>
<feBlend mode="normal" in="SourceGraphic" in2="effect1_dropShadow_389_4311" result="shape"/>
</filter>
<linearGradient id="paint0_linear_389_4311" x1="77.0148" y1="78.2434" x2="137.084" y2="110.621" gradientUnits="userSpaceOnUse">
<stop stop-color="#CC0000"/>
<stop offset="0.31" stop-color="#CC0000"/>
<stop offset="0.35" stop-color="#FD4B4B"/>
<stop offset="0.425" stop-color="#FD4B4B"/>
<stop offset="0.47" stop-color="#CC0000"/>
<stop offset="0.535" stop-color="#FD4B4B"/>
<stop offset="0.665" stop-color="#FD4B4B"/>
<stop offset="0.695" stop-color="#CC0000"/>
<stop offset="0.739608" stop-color="#FD4B4B"/>
<stop offset="1" stop-color="#CC0000"/>
</linearGradient>
<linearGradient id="paint1_linear_389_4311" x1="69.5569" y1="69.168" x2="133.975" y2="108.639" gradientUnits="userSpaceOnUse">
<stop stop-color="#F13F3F"/>
<stop offset="1" stop-color="#CC0000"/>
</linearGradient>
<linearGradient id="paint2_linear_389_4311" x1="19.8856" y1="126.773" x2="44.6629" y2="189.294" gradientUnits="userSpaceOnUse">
<stop stop-color="#CC0000"/>
<stop offset="0.31" stop-color="#CC0000"/>
<stop offset="0.35" stop-color="#FD4B4B"/>
<stop offset="0.425" stop-color="#FD4B4B"/>
<stop offset="0.47" stop-color="#CC0000"/>
<stop offset="0.535" stop-color="#FD4B4B"/>
<stop offset="0.665" stop-color="#FD4B4B"/>
<stop offset="0.695" stop-color="#CC0000"/>
<stop offset="0.739608" stop-color="#FD4B4B"/>
<stop offset="1" stop-color="#CC0000"/>
</linearGradient>
<linearGradient id="paint3_linear_389_4311" x1="20.0158" y1="115.197" x2="43.5752" y2="185.828" gradientUnits="userSpaceOnUse">
<stop stop-color="#F13F3F"/>
<stop offset="1" stop-color="#CC0000"/>
</linearGradient>
<linearGradient id="paint4_linear_389_4311" x1="0.213008" y1="16.5538" x2="47.1052" y2="33.6024" gradientUnits="userSpaceOnUse">
<stop stop-color="#CC0000"/>
<stop offset="0.31" stop-color="#CC0000"/>
<stop offset="0.35" stop-color="#FD4B4B"/>
<stop offset="0.425" stop-color="#FD4B4B"/>
<stop offset="0.47" stop-color="#CC0000"/>
<stop offset="0.535" stop-color="#FD4B4B"/>
<stop offset="0.665" stop-color="#FD4B4B"/>
<stop offset="0.695" stop-color="#CC0000"/>
<stop offset="0.739608" stop-color="#FD4B4B"/>
<stop offset="1" stop-color="#CC0000"/>
</linearGradient>
<linearGradient id="paint5_linear_389_4311" x1="-6.14538" y1="10.7798" x2="44.646" y2="32.4983" gradientUnits="userSpaceOnUse">
<stop stop-color="#F13F3F"/>
<stop offset="1" stop-color="#CC0000"/>
</linearGradient>
<linearGradient id="paint6_linear_389_4311" x1="66.8158" y1="114.18" x2="90.4981" y2="151.97" gradientUnits="userSpaceOnUse">
<stop stop-color="#CC0000"/>
<stop offset="0.31" stop-color="#CC0000"/>
<stop offset="0.35" stop-color="#FD4B4B"/>
<stop offset="0.425" stop-color="#FD4B4B"/>
<stop offset="0.47" stop-color="#CC0000"/>
<stop offset="0.535" stop-color="#FD4B4B"/>
<stop offset="0.665" stop-color="#FD4B4B"/>
<stop offset="0.695" stop-color="#CC0000"/>
<stop offset="0.739608" stop-color="#FD4B4B"/>
<stop offset="1" stop-color="#CC0000"/>
</linearGradient>
<linearGradient id="paint7_linear_389_4311" x1="65.5075" y1="106.615" x2="89.3716" y2="149.84" gradientUnits="userSpaceOnUse">
<stop stop-color="#F13F3F"/>
<stop offset="1" stop-color="#CC0000"/>
</linearGradient>
<linearGradient id="paint8_linear_389_4311" x1="0.842667" y1="79.8713" x2="53.0921" y2="108.034" gradientUnits="userSpaceOnUse">
<stop stop-color="#CC0000"/>
<stop offset="0.31" stop-color="#CC0000"/>
<stop offset="0.35" stop-color="#FD4B4B"/>
<stop offset="0.425" stop-color="#FD4B4B"/>
<stop offset="0.47" stop-color="#CC0000"/>
<stop offset="0.535" stop-color="#FD4B4B"/>
<stop offset="0.665" stop-color="#FD4B4B"/>
<stop offset="0.695" stop-color="#CC0000"/>
<stop offset="0.739608" stop-color="#FD4B4B"/>
<stop offset="1" stop-color="#CC0000"/>
</linearGradient>
<linearGradient id="paint9_linear_389_4311" x1="-5.64434" y1="71.9773" x2="50.3882" y2="106.31" gradientUnits="userSpaceOnUse">
<stop stop-color="#F13F3F"/>
<stop offset="1" stop-color="#CC0000"/>
</linearGradient>
<linearGradient id="paint10_linear_389_4311" x1="47.4434" y1="10.7473" x2="101.002" y2="58.1001" gradientUnits="userSpaceOnUse">
<stop stop-color="#CC0000"/>
<stop offset="0.31" stop-color="#CC0000"/>
<stop offset="0.35" stop-color="#FD4B4B"/>
<stop offset="0.425" stop-color="#FD4B4B"/>
<stop offset="0.47" stop-color="#CC0000"/>
<stop offset="0.535" stop-color="#FD4B4B"/>
<stop offset="0.665" stop-color="#FD4B4B"/>
<stop offset="0.695" stop-color="#CC0000"/>
<stop offset="0.739608" stop-color="#FD4B4B"/>
<stop offset="1" stop-color="#CC0000"/>
</linearGradient>
<linearGradient id="paint11_linear_389_4311" x1="41.9993" y1="-0.289213" x2="98.3039" y2="55.3368" gradientUnits="userSpaceOnUse">
<stop stop-color="#F13F3F"/>
<stop offset="1" stop-color="#CC0000"/>
</linearGradient>
</defs>
</svg>
