<svg width="62" height="66" viewBox="0 0 62 66" fill="none" xmlns="http://www.w3.org/2000/svg">
<g filter="url(#filter0_d_386_4200)">
<path d="M33.7098 9.72805L46.2902 17.0109C47.967 17.9817 49 19.7757 49 21.7171V36.2829C49 38.2243 47.967 40.0184 46.2902 40.9891L33.7098 48.272C32.033 49.2427 29.967 49.2427 28.2901 48.272L15.7098 40.9891C14.033 40.0184 13 38.2243 13 36.2829V21.7171C13 19.7757 14.033 17.9817 15.7098 17.0109L28.2901 9.72805C29.967 8.75732 32.033 8.75732 33.7098 9.72805Z" fill="url(#paint0_linear_386_4200)" stroke="url(#paint1_linear_386_4200)" stroke-width="2"/>
</g>
<path d="M20.0977 31.0977L28.5287 22.6667L28.0977 22.2357C27.9674 22.1054 27.9674 21.8945 28.0977 21.7643L28.5287 21.3333L24.7643 17.569C24.6689 17.4736 24.6403 17.3304 24.692 17.2057C24.7435 17.0811 24.8652 17 25 17C27.5283 17 29.6367 18.8379 30.3366 19.5251L30.7643 19.0977C30.8946 18.9674 31.1055 18.9674 31.2357 19.0977L31.6667 19.5287L32.293 18.9023C32.683 18.5124 33.3171 18.5124 33.7071 18.9023L34.0977 19.293C34.4877 19.6829 34.4877 20.3171 34.0977 20.707L33.4714 21.3333L33.9024 21.7643C34.0326 21.8946 34.0326 22.1055 33.9024 22.2357L33.475 22.6634C34.1621 23.3633 36 25.4717 36 28C36 28.1348 35.9189 28.2565 35.7943 28.3079C35.7529 28.3252 35.7097 28.3333 35.6667 28.3333C35.5801 28.3333 35.4948 28.2995 35.431 28.2357L31.6667 24.4714L31.2357 24.9024C31.1055 25.0326 30.8945 25.0326 30.7643 24.9024L30.3333 24.4714L21.9023 32.9024C21.8398 32.9649 21.7552 33 21.6667 33C20.7477 33 20 32.2523 20 31.3333C20 31.2448 20.0352 31.1602 20.0977 31.0977Z" fill="white"/>
<path d="M29.8096 39C29.023 39 28.5444 38.1338 28.9629 37.4679L30.8909 34.4003C31.0498 34.1475 31.4405 34.2612 31.4389 34.5598V34.5598C31.4373 34.8579 31.0465 34.9678 30.8897 34.7143L29.0428 31.727C28.6309 31.0608 29.1101 30.2011 29.8933 30.2011H30.4561C30.8088 30.2011 31.1354 30.3869 31.3156 30.6901L32.6507 32.9357C32.7915 33.1725 32.6227 33.4728 32.3472 33.4755V33.4755C32.0704 33.4783 31.8958 33.1789 32.0344 32.9393L33.3304 30.7002C33.5092 30.3913 33.839 30.2011 34.1959 30.2011H34.6091C35.3967 30.2011 35.8752 31.0692 35.4546 31.7351L33.6381 34.6116C33.479 34.8635 33.0894 34.7508 33.0894 34.4528V34.4528C33.0894 34.1543 33.48 34.042 33.6386 34.2949L35.6288 37.4687C36.0464 38.1347 35.5677 39 34.7816 39H34.1901C33.8304 39 33.4984 38.8068 33.3207 38.4941L31.9609 36.1013C31.8282 35.8678 31.995 35.5776 32.2636 35.5748V35.5748C32.5337 35.5719 32.7064 35.8615 32.5756 36.0978L31.2551 38.4842C31.079 38.8025 30.7439 39 30.3802 39H29.8096Z" fill="white"/>
<path d="M37.8067 39C37.2544 39 36.8067 38.5523 36.8067 38V37.5765C36.8067 37.3203 36.9051 37.0738 37.0815 36.8879L39.5997 34.236C39.7764 34.0433 39.9052 33.8757 39.9861 33.7332C40.0745 33.5908 40.1333 33.4651 40.1628 33.3561C40.1922 33.2388 40.2069 33.1299 40.2069 33.0293C40.2069 32.8115 40.1444 32.6439 40.0193 32.5265C39.8941 32.4008 39.7065 32.338 39.4562 32.338C39.2281 32.338 39.0109 32.4092 38.8049 32.5517V32.5517C38.4527 32.7808 38.0014 32.9741 37.6362 32.7663L37.1534 32.4914C36.7015 32.2341 36.5103 31.6601 36.8419 31.2595C37.0596 30.9965 37.3165 30.7652 37.6126 30.5656C38.1719 30.1885 38.8674 30 39.6991 30C40.31 30 40.8509 30.1131 41.3219 30.3394C41.793 30.5656 42.161 30.8841 42.4259 31.2947C42.6909 31.7053 42.8234 32.1913 42.8234 32.7528C42.8234 33.0377 42.7902 33.3226 42.724 33.6075C42.6651 33.8925 42.54 34.1941 42.3487 34.5126C42.1573 34.8226 41.8739 35.1704 41.4986 35.5559L39.7961 37.3209C39.611 37.5127 39.2896 37.4492 39.1914 37.2014V37.2014C39.096 36.9608 39.2733 36.6997 39.5322 36.6997H42C42.5523 36.6997 43 37.1474 43 37.6997V38C43 38.5523 42.5523 39 42 39H37.8067Z" fill="white"/>
<defs>
<filter id="filter0_d_386_4200" x="0" y="0" width="62" height="66" filterUnits="userSpaceOnUse" color-interpolation-filters="sRGB">
<feFlood flood-opacity="0" result="BackgroundImageFix"/>
<feColorMatrix in="SourceAlpha" type="matrix" values="0 0 0 0 0 0 0 0 0 0 0 0 0 0 0 0 0 0 127 0" result="hardAlpha"/>
<feOffset dy="4"/>
<feGaussianBlur stdDeviation="6"/>
<feComposite in2="hardAlpha" operator="out"/>
<feColorMatrix type="matrix" values="0 0 0 0 0.317483 0 0 0 0 0.0799203 0 0 0 0 0.0838796 0 0 0 1 0"/>
<feBlend mode="normal" in2="BackgroundImageFix" result="effect1_dropShadow_386_4200"/>
<feBlend mode="normal" in="SourceGraphic" in2="effect1_dropShadow_386_4200" result="shape"/>
</filter>
<linearGradient id="paint0_linear_386_4200" x1="16.2002" y1="13.5332" x2="49.4117" y2="39.5725" gradientUnits="userSpaceOnUse">
<stop stop-color="#CC0000"/>
<stop offset="0.31" stop-color="#CC0000"/>
<stop offset="0.35" stop-color="#FD4B4B"/>
<stop offset="0.425" stop-color="#FD4B4B"/>
<stop offset="0.47" stop-color="#CC0000"/>
<stop offset="0.535" stop-color="#FD4B4B"/>
<stop offset="0.665" stop-color="#FD4B4B"/>
<stop offset="0.695" stop-color="#CC0000"/>
<stop offset="0.739608" stop-color="#FD4B4B"/>
<stop offset="1" stop-color="#CC0000"/>
</linearGradient>
<linearGradient id="paint1_linear_386_4200" x1="12.5732" y1="7.26289" x2="47.6735" y2="38.0718" gradientUnits="userSpaceOnUse">
<stop stop-color="#F13F3F"/>
<stop offset="1" stop-color="#CC0000"/>
</linearGradient>
</defs>
</svg>
