<svg width="62" height="66" viewBox="0 0 62 66" fill="none" xmlns="http://www.w3.org/2000/svg">
<g filter="url(#filter0_d_386_4218)">
<path d="M33.7098 9.72805L46.2902 17.0109C47.967 17.9817 49 19.7757 49 21.7171V36.2829C49 38.2243 47.967 40.0184 46.2902 40.9891L33.7098 48.272C32.033 49.2427 29.967 49.2427 28.2901 48.272L15.7098 40.9891C14.033 40.0184 13 38.2243 13 36.2829V21.7171C13 19.7757 14.033 17.9817 15.7098 17.0109L28.2901 9.72805C29.967 8.75732 32.033 8.75732 33.7098 9.72805Z" fill="url(#paint0_linear_386_4218)" stroke="url(#paint1_linear_386_4218)" stroke-width="2"/>
</g>
<path d="M20.0977 31.0977L28.5287 22.6667L28.0977 22.2357C27.9674 22.1054 27.9674 21.8945 28.0977 21.7643L28.5287 21.3333L24.7643 17.569C24.6689 17.4736 24.6403 17.3304 24.692 17.2057C24.7435 17.0811 24.8652 17 25 17C27.5283 17 29.6367 18.8379 30.3366 19.5251L30.7643 19.0977C30.8946 18.9674 31.1055 18.9674 31.2357 19.0977L31.6667 19.5287L32.293 18.9023C32.683 18.5124 33.3171 18.5124 33.7071 18.9023L34.0977 19.293C34.4877 19.6829 34.4877 20.3171 34.0977 20.707L33.4714 21.3333L33.9024 21.7643C34.0326 21.8946 34.0326 22.1055 33.9024 22.2357L33.475 22.6634C34.1621 23.3633 36 25.4717 36 28C36 28.1348 35.9189 28.2565 35.7943 28.3079C35.7529 28.3252 35.7097 28.3333 35.6667 28.3333C35.5801 28.3333 35.4948 28.2995 35.431 28.2357L31.6667 24.4714L31.2357 24.9024C31.1055 25.0326 30.8945 25.0326 30.7643 24.9024L30.3333 24.4714L21.9023 32.9024C21.8398 32.9649 21.7552 33 21.6667 33C20.7477 33 20 32.2523 20 31.3333C20 31.2448 20.0352 31.1602 20.0977 31.0977Z" fill="white"/>
<path d="M24.2257 38.8689C23.6392 38.8689 23.2386 38.2759 23.4576 37.7317L25.0569 33.7578C25.2093 33.3792 25.5764 33.1311 25.9846 33.1311H26.3843C26.7924 33.1311 27.1596 33.3792 27.312 33.7578L28.9036 37.7128C29.1262 38.266 28.719 38.8689 28.1227 38.8689V38.8689C27.766 38.8689 27.4481 38.6441 27.3291 38.3079L25.938 34.3764C25.8815 34.2167 25.9999 34.0492 26.1693 34.0492V34.0492C26.3387 34.0492 26.4572 34.2167 26.4007 34.3764L25.0063 38.3171C24.8893 38.6478 24.5765 38.8689 24.2257 38.8689V38.8689ZM25.3323 37.8689C24.859 37.8689 24.5234 37.407 24.6697 36.9568V36.9568C24.763 36.6698 25.0305 36.4754 25.3323 36.4754H26.7498C27.0516 36.4754 27.3191 36.6698 27.4124 36.9568V36.9568C27.5587 37.407 27.2231 37.8689 26.7498 37.8689H25.3323Z" fill="white"/>
<path d="M32.0704 39C31.2605 39 30.6292 38.7623 30.1764 38.2869C29.7236 37.8115 29.4972 37.1448 29.4972 36.2869V34.0216C29.4972 33.5298 29.8959 33.1311 30.3877 33.1311V33.1311C30.8795 33.1311 31.2781 33.5298 31.2781 34.0216V36.2295C31.2781 36.6667 31.3511 36.9781 31.4969 37.1639C31.6428 37.3443 31.839 37.4344 32.0855 37.4344C32.3371 37.4344 32.5333 37.3443 32.6741 37.1639C32.82 36.9781 32.893 36.6667 32.893 36.2295V34.0065C32.893 33.5231 33.2849 33.1311 33.7683 33.1311V33.1311C34.2517 33.1311 34.6436 33.5231 34.6436 34.0065V36.2869C34.6436 37.1448 34.4173 37.8115 33.9645 38.2869C33.5117 38.7623 32.8804 39 32.0704 39Z" fill="white"/>
<path d="M37.4237 38.8689C36.9319 38.8689 36.5333 38.4702 36.5333 37.9784V35.4046C36.5333 34.9774 36.187 34.6311 35.7598 34.6311H35.7363C35.3221 34.6311 34.9863 34.2954 34.9863 33.8811V33.8811C34.9863 33.4669 35.3221 33.1311 35.7363 33.1311H39.1111C39.5253 33.1311 39.8611 33.4669 39.8611 33.8811V33.8811C39.8611 34.2954 39.5253 34.6311 39.1111 34.6311H39.0876C38.6604 34.6311 38.3141 34.9774 38.3141 35.4046V37.9784C38.3141 38.4702 37.9155 38.8689 37.4237 38.8689V38.8689Z" fill="white"/>
<path d="M43.0193 39C42.5917 39 42.1943 38.9262 41.827 38.7787C41.4648 38.6311 41.1504 38.4235 40.8838 38.1557C40.6172 37.8825 40.4084 37.5628 40.2575 37.1967C40.1116 36.8306 40.0386 36.4317 40.0386 36C40.0386 35.5628 40.1116 35.1639 40.2575 34.8033C40.4084 34.4372 40.6172 34.1202 40.8838 33.8525C41.1504 33.5792 41.4648 33.3689 41.827 33.2213C42.1943 33.0738 42.5917 33 43.0193 33C43.452 33 43.8494 33.0738 44.2116 33.2213C44.5738 33.3689 44.8882 33.5792 45.1548 33.8525C45.4215 34.1202 45.6277 34.4372 45.7736 34.8033C45.9245 35.1639 46 35.5628 46 36C46 36.4317 45.9245 36.8306 45.7736 37.1967C45.6277 37.5628 45.4215 37.8825 45.1548 38.1557C44.8882 38.4235 44.5738 38.6311 44.2116 38.7787C43.8494 38.9262 43.452 39 43.0193 39ZM43.0193 37.4344C43.1853 37.4344 43.3388 37.4016 43.4796 37.3361C43.6255 37.2705 43.7513 37.1776 43.8569 37.0574C43.9676 36.9317 44.0531 36.7814 44.1135 36.6066C44.1739 36.4262 44.204 36.224 44.204 36C44.204 35.776 44.1739 35.5765 44.1135 35.4016C44.0531 35.2213 43.9676 35.071 43.8569 34.9508C43.7513 34.8251 43.6255 34.7295 43.4796 34.6639C43.3388 34.5984 43.1853 34.5656 43.0193 34.5656C42.8533 34.5656 42.6974 34.5984 42.5515 34.6639C42.4106 34.7295 42.2848 34.8251 42.1742 34.9508C42.0685 35.071 41.9855 35.2213 41.9251 35.4016C41.8648 35.5765 41.8346 35.776 41.8346 36C41.8346 36.224 41.8648 36.4262 41.9251 36.6066C41.9855 36.7814 42.0685 36.9317 42.1742 37.0574C42.2848 37.1776 42.4106 37.2705 42.5515 37.3361C42.6974 37.4016 42.8533 37.4344 43.0193 37.4344Z" fill="white"/>
<defs>
<filter id="filter0_d_386_4218" x="0" y="0" width="62" height="66" filterUnits="userSpaceOnUse" color-interpolation-filters="sRGB">
<feFlood flood-opacity="0" result="BackgroundImageFix"/>
<feColorMatrix in="SourceAlpha" type="matrix" values="0 0 0 0 0 0 0 0 0 0 0 0 0 0 0 0 0 0 127 0" result="hardAlpha"/>
<feOffset dy="4"/>
<feGaussianBlur stdDeviation="6"/>
<feComposite in2="hardAlpha" operator="out"/>
<feColorMatrix type="matrix" values="0 0 0 0 0.317483 0 0 0 0 0.0799203 0 0 0 0 0.0838796 0 0 0 1 0"/>
<feBlend mode="normal" in2="BackgroundImageFix" result="effect1_dropShadow_386_4218"/>
<feBlend mode="normal" in="SourceGraphic" in2="effect1_dropShadow_386_4218" result="shape"/>
</filter>
<linearGradient id="paint0_linear_386_4218" x1="16.2002" y1="13.5332" x2="49.4117" y2="39.5725" gradientUnits="userSpaceOnUse">
<stop stop-color="#CC0000"/>
<stop offset="0.31" stop-color="#CC0000"/>
<stop offset="0.35" stop-color="#FD4B4B"/>
<stop offset="0.425" stop-color="#FD4B4B"/>
<stop offset="0.47" stop-color="#CC0000"/>
<stop offset="0.535" stop-color="#FD4B4B"/>
<stop offset="0.665" stop-color="#FD4B4B"/>
<stop offset="0.695" stop-color="#CC0000"/>
<stop offset="0.739608" stop-color="#FD4B4B"/>
<stop offset="1" stop-color="#CC0000"/>
</linearGradient>
<linearGradient id="paint1_linear_386_4218" x1="12.5732" y1="7.26289" x2="47.6735" y2="38.0718" gradientUnits="userSpaceOnUse">
<stop stop-color="#F13F3F"/>
<stop offset="1" stop-color="#CC0000"/>
</linearGradient>
</defs>
</svg>
